<svg width="1753" height="300" viewBox="0 0 1753 300" fill="none" xmlns="http://www.w3.org/2000/svg">
<path d="M754.535 88.5V255H601.535V45H711.035V88.5H754.535ZM646.835 211.5H709.235V88.5H646.835V211.5Z" fill="white"/>
<path d="M456.3 88.5V45H569.4V88.5H456.3ZM569.4 124.8V211.5H524.1V168.3H411V88.5H456.3V124.8H569.4ZM411 255V211.5H524.1V255H411Z" fill="white"/>
<path d="M198.237 88.5V211.5H260.637V171.9H226.737V128.1H305.937V255H198.237V213.3H152.937V45H305.937V88.5H198.237Z" fill="white"/>
<path d="M0 211.5V45H45.3V211.5H0ZM45.3 255V211.5H135.3V255H45.3Z" fill="white"/>
<path fill-rule="evenodd" clip-rule="evenodd" d="M938.763 211.5H833.163V88.5H897.363V132.3H942.663V88.5H897.363V45H787.863V212H833V255H938.763V211.5Z" fill="white"/>
<path d="M1752.79 45V255H1707.49V191.4H1641.49V147.9H1596.19V45H1641.49V147.9H1707.49V45H1752.79Z" fill="white"/>
<path d="M1408.16 88.5V45H1521.26V88.5H1408.16ZM1453.46 180.6V211.5H1566.56V255H1408.16V137.1H1521.26V88.5H1566.56V180.6H1453.46Z" fill="white"/>
<path d="M1373.57 255H1269.47V211.5H1224.17V45H1328.27V88.5H1373.57V255ZM1328.27 88.5H1269.47V211.5H1328.27V88.5Z" fill="white"/>
<path d="M1031.4 88.5V45H1144.5V88.5H1031.4ZM1076.7 180.6V211.5H1189.8V255H1031.4V137.1H1144.5V88.5H1189.8V180.6H1076.7Z" fill="white"/>
<rect x="1145" width="45" height="45" fill="#ED1846"/>
<rect x="1521" width="45" height="45" fill="#B43E97"/>
<rect x="986" y="255" width="45" height="45" fill="#0DB14B"/>
</svg>
